Salvador, Bahia - Brazil, alive with the charm of the 1950s, A gang of street kids known as "Capitães da Areia" (Captains of the Sands) are hunted like common criminals. As we draw closer, we see that they are just children, almost a hundred of them, completely abandoned. But they won't be children for long: by the end of this odyssey, many will have become men. A year in the lives of these boys, in which they have incredible adventures, the most wonderful dreams, visit hell, discover sex, death, freedom! Written by Based on the novel by Jorge Amado

Complete name: Capitães Da Areia.avi
Format : AVI
Format/Info : Audio Video Interleave
File size : 697 MiB
Duration : 1h 38mn
Overall bit rate : 990 Kbps
Writing application : FairUse Wizard - http://fairusewizard.com
Writing library : The best and REALLY easy backup tool

Video
ID : 0
Format : MPEG-4 Visual
Format profile : Advanced Simple@L5
Format settings, BVOP : 2
Format settings, QPel : No
Format settings, GMC : No warppoints
Format settings, Matrix : Default (H.263)
Muxing mode : Packed bitstream
Codec ID : XVID
Codec ID/Hint : XviD
Duration : 1h 38mn
Bit rate : 853 Kbps
Width : 608 pixels
Height : 336 pixels
Display aspect ratio : 16:9
Frame rate : 23.976 fps
Color space : YUV
Chroma subsampling : 4:2:0
Bit depth : 8 bits
Scan type : Progressive
Compression mode : Lossy
Bits/(Pixel*Frame) : 0.174
Stream size : 600 MiB (86%)
Writing library : XviD 1.2.1 (UTC 2008-12-04)

Audio
ID : 1
Format : MPEG Audio
Format version : Version 1
Format profile : Layer 3
Mode : Joint stereo
Mode extension : MS Stereo
Codec ID : 55
Codec ID/Hint : MP3
Duration : 1h 38mn
Bit rate mode : Constant
Bit rate : 128 Kbps
Channel(s) : 2 channels
Sampling rate : 48.0 KHz
Compression mode : Lossy
Stream size : 90.1 MiB (13%)
Alignment : Aligned on interleaves
Interleave, duration : 42 ms (1.00 video frame)
Interleave, preload duration : 504 ms
Writing library : LAME3.97
Encoding settings : -m j -V 4 -q 2 -lowpass 17 -b 128
